<?xml version="1.0" encoding="UTF-8" standalone="no"?>
<!-- Created with Inkscape (http://www.inkscape.org/) -->

<svg
   xmlns:dc="http://purl.org/dc/elements/1.1/"
   xmlns:cc="http://creativecommons.org/ns#"
   xmlns:rdf="http://www.w3.org/1999/02/22-rdf-syntax-ns#"
   xmlns:svg="http://www.w3.org/2000/svg"
   xmlns="http://www.w3.org/2000/svg"
   xmlns:xlink="http://www.w3.org/1999/xlink"
   xmlns:sodipodi="http://sodipodi.sourceforge.net/DTD/sodipodi-0.dtd"
   xmlns:inkscape="http://www.inkscape.org/namespaces/inkscape"
   width="1366"
   height="768"
   viewBox="0 0 361.42083 203.20001"
   version="1.1"
   id="svg8"
   inkscape:version="0.92.3 (2405546, 2018-03-11)"
   sodipodi:docname="cg_bg.svg">
  <defs
     id="defs2">
    <linearGradient
       inkscape:collect="always"
       id="linearGradient1619">
      <stop
         style="stop-color:#3949ab;stop-opacity:1;"
         offset="0"
         id="stop1615" />
      <stop
         style="stop-color:#3949ab;stop-opacity:0;"
         offset="1"
         id="stop1617" />
    </linearGradient>
    <linearGradient
       inkscape:collect="always"
       xlink:href="#linearGradient1619"
       id="linearGradient1621"
       x1="74.608734"
       y1="173.93109"
       x2="70.156265"
       y2="381.06204"
       gradientUnits="userSpaceOnUse" />
  </defs>
  <sodipodi:namedview
     id="base"
     pagecolor="#ffffff"
     bordercolor="#666666"
     borderopacity="1.0"
     inkscape:pageopacity="0.0"
     inkscape:pageshadow="2"
     inkscape:zoom="0.35"
     inkscape:cx="681.76972"
     inkscape:cy="263.84576"
     inkscape:document-units="px"
     inkscape:current-layer="layer1"
     showgrid="false"
     units="px"
     inkscape:window-width="1366"
     inkscape:window-height="698"
     inkscape:window-x="0"
     inkscape:window-y="0"
     inkscape:window-maximized="1" />
  <metadata
     id="metadata5">
    <rdf:RDF>
      <cc:Work
         rdf:about="">
        <dc:format>image/svg+xml</dc:format>
        <dc:type
           rdf:resource="http://purl.org/dc/dcmitype/StillImage" />
        <dc:title />
      </cc:Work>
    </rdf:RDF>
  </metadata>
  <g
     inkscape:label="Layer 1"
     inkscape:groupmode="layer"
     id="layer1"
     transform="translate(0,-93.799984)">
    <path
       style="fill:url(#linearGradient1621);fill-opacity:1;stroke-width:0.22083074;stroke-miterlimit:4;stroke-dasharray:none"
       d="M 358.93009,93.946867 V 93.724539 H -0.23055284 V 297.98288 H 95.260855 c 0.04911,-0.1815 0.183021,-0.68399 0.556667,-1.96666 0.431369,-1.48083 1.082896,-3.65289 1.963236,-6.41788 0.880341,-2.76498 1.989495,-6.1226 3.336402,-9.97511 1.34693,-3.8525 2.9314,-8.19991 4.76251,-12.94327 0.91556,-2.37169 1.89288,-4.84212 2.93279,-7.39965 1.0399,-2.55754 2.14274,-5.20188 3.3092,-7.92067 1.16645,-2.71879 2.39658,-5.51244 3.69179,-8.36791 1.2952,-2.85548 2.6554,-5.77279 4.08156,-8.74037 1.42615,-2.96757 2.91818,-5.98551 4.47749,-9.04061 1.55931,-3.05509 3.18595,-6.14749 4.88062,-9.26553 1.69465,-3.11803 3.45717,-6.26134 5.28938,-9.41774 1.83221,-3.15638 3.73389,-6.326 5.70586,-9.49617 1.97196,-3.17015 4.01458,-6.34096 6.1285,-9.50032 2.11392,-3.15936 4.29922,-6.30727 6.5573,-9.43124 2.25807,-3.12398 4.58885,-6.22387 6.99328,-9.28787 2.40444,-3.064 4.88246,-6.09181 7.43544,-9.07125 1.2765,-1.48973 2.57186,-2.96751 3.88591,-4.43149 1.31405,-1.46398 2.647,-2.91425 3.99887,-4.3494 1.35189,-1.43516 2.7224,-2.85524 4.11238,-4.2585 1.38998,-1.40327 2.79904,-2.78994 4.2274,-4.15824 1.42835,-1.3683 2.87593,-2.71838 4.34294,-4.04864 1.46701,-1.33027 2.95359,-2.64053 4.45952,-3.92969 1.50593,-1.28915 3.03147,-2.55692 4.57661,-3.80189 1.54514,-1.24497 3.1101,-2.46705 4.69472,-3.66476 1.5846,-1.19772 3.18897,-2.3714 4.81334,-3.5188 1.62436,-1.14738 3.2686,-2.26844 4.93299,-3.36243 1.6644,-1.09399 3.34898,-2.16078 5.05368,-3.19829 1.70469,-1.03752 3.42959,-2.04578 5.17486,-3.02376 1.74528,-0.97797 3.51096,-1.92555 5.29709,-2.8409 1.78613,-0.91535 3.59257,-1.79853 5.41982,-2.64818 1.82726,-0.84966 3.67544,-1.66575 5.5441,-2.44664 1.86868,-0.78089 3.75804,-1.52668 5.66838,-2.23574 1.91034,-0.70906 3.84138,-1.38134 5.79367,-2.01549 1.9523,-0.63415 3.92549,-1.23024 5.92001,-1.78641 1.99453,-0.556163 4.01033,-1.072345 6.04736,-1.547456 2.03704,-0.475111 4.09543,-0.909215 6.17524,-1.300198 2.0798,-0.390984 4.18126,-0.739284 6.30411,-1.043067 2.12286,-0.303783 4.26737,-0.563077 6.43356,-0.776587 2.16619,-0.21351 4.35418,-0.38111 6.56396,-0.501274 2.20981,-0.120166 4.44126,-0.192868 6.69493,-0.216614 z"
       id="path828"
       inkscape:connector-curvature="0" />
    <path
       style="fill:#c99898;fill-opacity:0;stroke-width:0.83508599;stroke-miterlimit:4;stroke-dasharray:none"
       d="M 1368.8574 2.5507812 L 1120 5.1425781 C 1111.4286 5.2318639 1102.9417 5.5052185 1094.5371 5.9570312 C 1086.1326 6.408844 1077.811 7.0390102 1069.5723 7.8417969 C 1061.3336 8.6445836 1053.1774 9.6195112 1045.1035 10.761719 C 1037.0296 11.903926 1029.0371 13.213518 1021.127 14.683594 C 1013.2168 16.153669 1005.3881 17.785876 997.64062 19.572266 C 989.89317 21.358656 982.22642 23.299473 974.64062 25.390625 C 967.05483 27.481777 959.55019 29.723062 952.125 32.107422 C 944.69981 34.491782 937.35547 37.019531 930.08984 39.685547 C 922.82422 42.351563 915.63836 45.155679 908.53125 48.091797 C 901.42414 51.027915 894.39495 54.096348 887.44531 57.291016 C 880.49568 60.485683 873.62524 63.806383 866.83203 67.248047 C 860.03882 70.68971 853.32338 74.252581 846.68555 77.929688 C 840.04771 81.606794 833.48741 85.397832 827.00391 89.298828 C 820.5204 93.199825 814.11342 97.210885 807.7832 101.32422 C 801.45299 105.43755 795.19946 109.65268 789.02148 113.9668 C 782.84351 118.28091 776.74163 122.69392 770.71484 127.19727 C 764.68806 131.70061 758.73601 136.29554 752.85938 140.97656 C 746.98274 145.65759 741.18066 150.42433 735.45312 155.27148 C 729.72559 160.11863 724.07167 165.04515 718.49219 170.04688 C 712.9127 175.0486 707.40709 180.12479 701.97461 185.26953 C 696.54213 190.41427 691.183 195.62809 685.89648 200.9043 C 680.60997 206.1805 675.39746 211.5199 670.25586 216.91602 C 665.11426 222.31213 660.04461 227.76505 655.04688 233.26953 C 650.04914 238.77401 645.12249 244.33036 640.26758 249.93164 C 630.55776 261.13421 621.13309 272.51859 611.98828 284.03906 C 602.84347 295.55954 593.97879 307.21498 585.39062 318.96094 C 576.80246 330.70689 568.49107 342.54286 560.45117 354.42188 C 552.41127 366.30089 544.64258 378.22294 537.14258 390.14258 C 529.64258 402.06222 522.40988 413.97981 515.44141 425.84766 C 508.47294 437.71551 501.76953 449.53418 495.32422 461.25781 C 488.87891 472.98145 482.69224 484.60871 476.76172 496.0957 C 470.83119 507.58269 465.15653 518.92997 459.73242 530.08789 C 454.30831 541.24581 449.13504 552.21474 444.20898 562.95117 C 439.28292 573.6876 434.60435 584.19155 430.16797 594.41406 C 425.73158 604.63658 421.53711 614.57914 417.58203 624.19531 C 413.62695 633.81149 409.90988 643.10017 406.42773 652.01758 C 399.46345 669.8524 393.43722 686.19838 388.31445 700.68359 C 383.19169 715.16881 378.97321 727.79325 375.625 738.18945 C 372.27679 748.58566 369.79883 756.75251 368.1582 762.32031 C 366.73711 767.14308 366.22781 769.03239 366.04102 769.71484 L 1368.8574 769.71484 L 1368.8574 2.5507812 z "
       id="rect823"
       transform="matrix(0.26458334,0,0,0.26458334,0,93.799984)" />
  </g>
</svg>
